<mxfile host="65bd71144e">
    <diagram id="vcVrGOUPcu3KgqkHXtE-" name="Page-1">
        <mxGraphModel dx="2131" dy="542" grid="1" gridSize="10" guides="1" tooltips="1" connect="1" arrows="1" fold="1" page="1" pageScale="1" pageWidth="1169" pageHeight="827" math="0" shadow="0">
            <root>
                <mxCell id="0"/>
                <mxCell id="1" parent="0"/>
                <mxCell id="2" value="Diagram of New Account Creation" style="rounded=0;whiteSpace=wrap;html=1;fontStyle=1;fontSize=23;" vertex="1" parent="1">
                    <mxGeometry x="-10" width="500" height="60" as="geometry"/>
                </mxCell>
                <mxCell id="3" value="&lt;font&gt;/new_account&lt;/font&gt;" style="rounded=0;whiteSpace=wrap;html=1;strokeColor=default;fontStyle=1;fontSize=25;" vertex="1" parent="1">
                    <mxGeometry x="-10" y="100" width="460" height="60" as="geometry"/>
                </mxCell>
                <mxCell id="6" value="" style="shape=flexArrow;endArrow=classic;html=1;exitX=0.041;exitY=1.084;exitDx=0;exitDy=0;exitPerimeter=0;" edge="1" parent="1" source="3">
                    <mxGeometry width="50" height="50" relative="1" as="geometry">
                        <mxPoint x="140" y="270" as="sourcePoint"/>
                        <mxPoint x="9" y="240" as="targetPoint"/>
                    </mxGeometry>
                </mxCell>
                <mxCell id="8" value="&lt;font style=&quot;font-size: 14px;&quot;&gt;ask for making new id just with email id&amp;nbsp;&lt;/font&gt;" style="text;html=1;align=center;verticalAlign=middle;whiteSpace=wrap;rounded=0;" vertex="1" parent="1">
                    <mxGeometry x="30" y="180" width="400" height="30" as="geometry"/>
                </mxCell>
                <mxCell id="9" value="" style="rounded=1;whiteSpace=wrap;html=1;" vertex="1" parent="1">
                    <mxGeometry x="-10" y="250" width="440" height="60" as="geometry"/>
                </mxCell>
            </root>
        </mxGraphModel>
    </diagram>
</mxfile>